<svg xmlns="http://www.w3.org/2000/svg" width="20" height="19.99" viewBox="0 0 20 19.99">
  <g id="icon_csgo_k" transform="translate(-565.327 -186.888)">
    <g id="路径_148" data-name="路径 148" transform="translate(565.327 186.888)">
      <path id="路径_453" data-name="路径 453" d="M571.451,194.815a4.568,4.568,0,0,1,.068-1.731,2.566,2.566,0,0,1,.749-1.309,1.425,1.425,0,0,1,.8-.365.577.577,0,0,1,.576.168c.153-.065.167-.15.113-.3a1.8,1.8,0,0,1,.845-2.169,1.478,1.478,0,0,1,1.512.085c.167.106.346.195.521.287a.2.2,0,0,1,.128.224.32.32,0,0,0,.023.146,1.971,1.971,0,0,1,.145.957.446.446,0,0,1-.376.417c-.2.049-.2.055-.176.256.013.131.03.262.046.4.356.051.653-.178.993-.167l.14-.55h.04a1.873,1.873,0,0,1,.046.269c0,.091.032.139.126.149s.184.046.166.185h4.58v.18c.139.059.152.052.153-.093v-.7l.132-.01c.089.263-.1.57.154.8l.148-.125c.01.152.017.268.026.4.09.005.2.018.3.018q.364,0,.728-.009a9.988,9.988,0,1,0-14.479,12.895c.092-.155.193-.306.292-.458a6.934,6.934,0,0,0,.4-.788.258.258,0,0,0,.006-.169,2.714,2.714,0,0,1,.043-1.1c.049-.365.117-.729.174-1.092a.177.177,0,0,0-.01-.12c-.147-.17-.113-.385-.15-.581a.19.19,0,0,1,.023-.108.193.193,0,0,0-.024-.269c-.044-.045-.012-.177,0-.267.037-.236.1-.29.335-.324.016-.714-.229-1.413-.152-2.153l.139.113c-.1-.335.2-.279.343-.389-.2-.046-.386-.1-.574-.128a.141.141,0,0,1-.139-.143v-.017c.009-.165.031-.328.046-.492.044-.48.093-.959.128-1.439.008-.115.047-.162.153-.171.146-.011.292-.023.438-.037.061-.006.121-.021.181-.031C571.433,194.966,571.464,194.919,571.451,194.815Z" transform="translate(-565.327 -186.888)" fill="#989898"/>
    </g>
    <g id="路径_149" data-name="路径 149" transform="translate(578.065 192.972)">
      <path id="路径_454" data-name="路径 454" d="M578.09,193.687l.28.523q.15-.152.283-.315a2.471,2.471,0,0,0,.34-.531.461.461,0,0,0-.08-.372c-.03-.042-.219,0-.323.044s-.126.136-.04.24c-.134.074-.254.138-.37.207C578.106,193.528,578.034,193.581,578.09,193.687Z" transform="translate(-578.07 -192.975)" fill="#989898"/>
    </g>
    <g id="路径_150" data-name="路径 150" transform="translate(571.392 201.553)">
      <path id="路径_455" data-name="路径 455" d="M575.879,203.89a.61.61,0,0,1-.7-.3c-.292-.458-.607-.9-.909-1.354a.19.19,0,0,0-.194-.108.421.421,0,0,1-.462-.291c-.04-.091-.089-.177-.141-.277a.339.339,0,0,0-.061.083,1.642,1.642,0,0,1-.374.609.924.924,0,0,0-.155.269,4.7,4.7,0,0,0-.421,1.344.555.555,0,0,1-.279.452.455.455,0,0,0-.155.192,1.453,1.453,0,0,1-.34.461.8.8,0,0,0-.279.709,1.057,1.057,0,0,1-.014.4,9.977,9.977,0,0,0,3.933.8c.262,0,.52-.01.776-.03a11.141,11.141,0,0,1-.187-1.544.335.335,0,0,1,.058-.24c.169-.187.138-.418.183-.635a.54.54,0,0,0-.154-.5A.157.157,0,0,0,575.879,203.89Z" transform="translate(-571.395 -201.561)" fill="#989898"/>
    </g>
    <g id="路径_151" data-name="路径 151" transform="translate(575.784 192.421)">
      <path id="路径_456" data-name="路径 456" d="M584.276,192.452c-.09-.009-.18-.015-.27-.015a3.814,3.814,0,0,0-1,.064,1.48,1.48,0,0,1-.43-.024h0c-.029.232-.029.232-.268.232h-1.5a.481.481,0,0,0-.42.232,2.221,2.221,0,0,1-.383.392.216.216,0,0,0-.1.214c.049.269.1.538.15.806.011.06.023.119.035.184a.344.344,0,0,1-.084.034.355.355,0,0,0-.348.363v.018c-.006.085-.026.168-.039.252a.9.9,0,0,1-.424.716c-.1.058-.173.164-.273.225-.122.075-.259.125-.388.188a.855.855,0,0,0-.093.068c-.094-.166-.31-.1-.472-.172-.4-.179-.789-.358-1.182-.541-.111-.051-.216-.115-.331-.177l-.121.5.088.038a.537.537,0,0,1,.385.539c-.007.377-.04.754-.062,1.131-.007.118-.022.236-.018.354a1.328,1.328,0,0,1-.267.806.339.339,0,0,1-.2.1.405.405,0,0,1-.178-.036c-.2-.065-.325.051-.283.264.007.037.017.074.021.111a1.149,1.149,0,0,0,.306.664,7.619,7.619,0,0,1,1.394,2.514c.051.132.089.27.151.4a1.422,1.422,0,0,0,.169.211.3.3,0,0,1,.077.116.74.74,0,0,0,.128.425.156.156,0,0,1,.018.108c-.042.6-.069,1.207-.135,1.808a3.008,3.008,0,0,0,0,.984h0a9.992,9.992,0,0,0,6.358-14.1Z" transform="translate(-575.792 -192.428)" fill="#989898"/>
    </g>
  </g>
</svg>
