<?xml version="1.0" encoding="utf-8"?>
<!-- Generator: Adobe Illustrator 23.0.6, SVG Export Plug-In . SVG Version: 6.00 Build 0)  -->
<svg version="1.1" xmlns="http://www.w3.org/2000/svg" xmlns:xlink="http://www.w3.org/1999/xlink" x="0px" y="0px"
	 viewBox="0 0 20 20" style="enable-background:new 0 0 20 20;" xml:space="preserve">
<style type="text/css">
	.st0{fill:#989898;}
</style>
<g id="圖層_1">
</g>
<g id="圖層_2">
	<g>
		<path class="st0" d="M17.1,7.1l2.7-4.7c0.1-0.2,0-0.4-0.2-0.4H7l0.7,2.5L17.1,7.1z"/>
		<path class="st0" d="M6,2.1H0.5c-0.3,0-0.4,0.3-0.3,0.5l6.3,11l2.1-2.2L6,2.1z"/>
		<path class="st0" d="M12.9,6.9c-2-0.5-4.2-1.1-5-1.3l1.4,5.1L12.9,6.9z"/>
		<path class="st0" d="M7,14.3L9.7,19c0.1,0.2,0.4,0.2,0.6,0l6.4-11.1C16,7.7,15.1,7.5,14,7.2L7,14.3z"/>
	</g>
</g>
</svg>
