<svg xmlns="http://www.w3.org/2000/svg" width="17.324" height="20" viewBox="0 0 17.324 20">
  <g id="icon_herostorm_k" transform="translate(-965.168 -186.886)">
    <path id="路径_476" data-name="路径 476" d="M973.83,186.886l-8.662,5v10l8.662,5,8.662-5v-10Zm-5.758,5.63a8.621,8.621,0,0,1,4.9-2.179c.034,0,.064-.036.1-.055h1.7c.468.1.938.193,1.4.308a8.269,8.269,0,0,1,3.5,1.9,8.927,8.927,0,0,0-9.645,3.5,5.581,5.581,0,0,1-1.73-2.039c-.153-.316-.242-.663-.369-.992a.352.352,0,0,1,.145-.444Zm5.192,11.525a21.667,21.667,0,0,1-2.128-1.065,8.566,8.566,0,0,1-3.969-6.039c-.029-.174-.076-.344-.115-.516v-1.7l.19-.9a8.957,8.957,0,0,0,7.8,6.644c.134.846-.644,2.442-1.778,3.575Zm7.345-7.681c-.063.341-.115.685-.192,1.024a8.7,8.7,0,0,1-5.7,6.566.153.153,0,0,1-.076-.009,8.977,8.977,0,0,0,1.789-10.115,5.366,5.366,0,0,1,3.775-.268.354.354,0,0,1,.184.234c.065.316.1.639.152.958a.608.608,0,0,0,.07.151Z" fill="#989898"/>
  </g>
</svg>
