<svg xmlns="http://www.w3.org/2000/svg" width="19.933" height="20" viewBox="0 0 19.933 20">
  <g id="icon_mortal_k" transform="translate(-153.257 -220.243)">
    <g id="路径_200" data-name="路径 200" transform="translate(153.257 220.243)">
      <path id="路径_505" data-name="路径 505" d="M164.19,220.316a2.88,2.88,0,0,1-.344-.073H162.6c-.764.149-1.545.244-2.291.457a9.933,9.933,0,0,0-6.976,8.5,3.621,3.621,0,0,1-.076.384v1.6a19.262,19.262,0,0,0,.549,2.269,9.638,9.638,0,0,0,8.109,6.691,9.921,9.921,0,0,0,11.174-8.485v0c.03-.217.066-.434.1-.651v-1.6c-.142-.677-.243-1.367-.431-2.031A9.906,9.906,0,0,0,164.19,220.316Zm-4.3,1.829c.1.015.2.02.278.028l-.086-.492.125-.019.881,1.283a10.9,10.9,0,0,1-1.314-.118c-.171-.035-.434-.261-.427-.387.014-.27.278-.334.539-.294Zm1.549,14.954c0,.4-.368.414-.617.431a15.108,15.108,0,0,1-2.2.038,2.5,2.5,0,0,1-1.7-.939,9.881,9.881,0,0,1-2.409-3.882,9.316,9.316,0,0,1,4.087-10.265,1.714,1.714,0,0,0,1.323.828c-1.75-.147-2.775.826-3.576,2.2-.078-.071-.126-.116-.175-.159s-.087-.069-.149-.118c-.359.37.024.586.141.854-.011.036-.012.091-.039.118-.78.755-.657,1.752-.721,2.7-.034.5-.069,1-.092,1.506a1.251,1.251,0,0,1-.727,1.083c.467.332.552.326,1.347-.048.364.627.742,1.242,1.077,1.878a1.557,1.557,0,0,1,.084.639c.011.34.012.682-.006,1.022-.026.483-.1.531-.579.417-.068-.016-.139-.024-.247-.043a.769.769,0,0,0,.729.627c.359.051.537-.183.65-.48a3.429,3.429,0,0,1,.18-.5,2.17,2.17,0,0,1,.317-.36c.131.131.33.241.379.4a14.879,14.879,0,0,0,.426,1.426l.409-.98c.52.162,1.106.3,1.657.53.452.188.434.663.431,1.075Zm8.6-1.052a9.7,9.7,0,0,0-.017-1.779,3.964,3.964,0,0,0-3.815-3.251,11.265,11.265,0,0,0-2.386.1,5.019,5.019,0,0,1-3.408-.655,1.769,1.769,0,0,1-.4-2.228l-.309-1.347.207-.049a4.4,4.4,0,0,1,.09.511.949.949,0,0,0,.91.987c.033,0,.066,0,.1,0a3.594,3.594,0,0,0,1.389-.372,1.559,1.559,0,0,1,1.679,0,7.41,7.41,0,0,1,1.644,1.324,2.829,2.829,0,0,0,2.561.744c.2-.011.389-.217.623-.357a8.67,8.67,0,0,0,.287,1.283,10.664,10.664,0,0,0,.9,1.954c.449.7,1.224.591,1.713-.256a2.571,2.571,0,0,1-.853.244c-.227-.025-.431-.255-.612-.442.851.051,1.377-.174,1.63-.757a.751.751,0,0,0-.194-1,1.785,1.785,0,0,0-.511-.173l-.04.127c.022.036.035.086.067.106.5.309.59.562.334.939a.781.781,0,0,1-1.242.235,3.063,3.063,0,0,1-.562-.977c-.168-.423-.209-.9-.407-1.307a4.739,4.739,0,0,0-.717-.873l.076-.126.819.459a3.779,3.779,0,0,0,.312-1.708l.244-.083c.06-.325-.458-.814-.725-.671a.86.86,0,0,1-.832-.052c-.375-.16-.782-.246-1.161-.4a2,2,0,0,1-1.118-1.016l.688-.153a1.139,1.139,0,0,0-1.243-1.249.554.554,0,0,1-.624-.385c-.088-.2-.488-.333-.766-.373a9.253,9.253,0,0,0-1.3-.016l-.022-.5-.543.47c-.285-.1-.569-.207-.857-.3s-.577-.19-.573-.571a.735.735,0,0,1,.49-.767.61.61,0,0,1,.829.237c.009.016.017.033.025.05l.022-.408a8.978,8.978,0,0,1,9.055,5.2c1.532,3.128.816,7.8-1.46,9.631Zm-2.484-7.587a.589.589,0,0,1,.244.313,2.2,2.2,0,0,1-.059.554,2.236,2.236,0,0,1-.675-.1,11.494,11.494,0,0,1-1.256-.746c-.5-.335-.977-.719-1.489-1.041a9.594,9.594,0,0,0-1.056-.5,1.223,1.223,0,0,1,1.913-.321c.492.35.929.776,1.4,1.151.313.243.655.45.973.69Zm-.2-1.5a6.8,6.8,0,0,1,.806.045l.006.21a4.758,4.758,0,0,1-.651.19.328.328,0,0,1-.282-.147c-.028-.086.067-.3.117-.3Zm-4.482-2.039c.262-.152.466-.369.674-.373a1.644,1.644,0,0,1,1.346.8Z" transform="translate(-153.257 -220.243)" fill="#989898"/>
    </g>
  </g>
</svg>
