<?xml version="1.0" encoding="utf-8"?>
<!-- Generator: Adobe Illustrator 23.0.6, SVG Export Plug-In . SVG Version: 6.00 Build 0)  -->
<svg version="1.1" id="圖層_1" xmlns="http://www.w3.org/2000/svg" xmlns:xlink="http://www.w3.org/1999/xlink" x="0px" y="0px"
	 viewBox="0 0 212.7 188.3" style="enable-background:new 0 0 212.7 188.3;" xml:space="preserve">
<g>
	<path d="M154.2,84.4C154.2,84.4,154.2,84.4,154.2,84.4c-1.4,2.9-2.7,5.9-4,9.1c-4,9.6-8.1,19.5-16.6,26.9
		c-2.9,2.6-10.9,7.6-14.8,10.1c0.3-0.7,0.5-1.4,0.8-2.2c0,0,0-0.1,0-0.1c0.3-0.9,0.6-1.7,0.8-2.6c1.6-6.5,1.2-12.8-0.1-18.4
		c-0.1-0.6-0.3-1.2-0.4-1.8c-0.2-0.6-0.3-1.2-0.5-1.8c-1-3.2-2.2-6-3.4-8.4c0.4,2.8,0.8,6,0.9,9.4c0,0.6,0,1.3,0.1,1.9
		c0,0.6,0,1.3,0,1.9c-0.1,7-1.2,14.6-4.4,21.8c-0.4,0.9-0.9,1.9-1.4,2.8c-0.5,1-1.1,1.9-1.7,2.9c-1.5,2.3-3.3,4.6-5.4,6.7
		c-5.6,5.4-11.9,9.7-18.7,12.8c-2.2,1-4.5,1.9-6.8,2.6c-0.4,0.1-0.9,0.3-1.3,0.4c-0.6,0.2-1.2,0.3-1.8,0.5c-0.1,0-0.2,0-0.3,0.1
		c-1,0.2-2,0.5-2.9,0.6c-3.5,0.7-7.1,1-10.7,1c-0.8,0-1.7,0-2.5-0.1c-4.7-0.2-9.2-1-13.4-2.4c-0.8-0.3-1.6-0.5-2.4-0.8
		c6.5,3.8,13.9,6.3,21.3,7.2c1.7,0.2,3.4,0.3,5,0.3c0.1,0,0.2,0,0.3,0c-0.1,0-0.3,0.1-0.4,0.1c22.7,0.9,39.5-7.5,52.9-17.6
		c12.9-9.8,21.1-18.9,26.9-33.3c2.8-6.9,5.6-13.9,7.8-20.8c1.4-4.3,2.8-8.7,4.4-12.9c3.3-8.6,7.2-15.5,11.8-20.8
		C164,66.1,157.7,77.1,154.2,84.4z"/>
	<path d="M168.9,58C168.9,58,168.9,58,168.9,58c0,0-0.1,0-0.1,0.1c-0.4,0.2-0.9,0.5-1.3,0.8c-0.3,0.2-0.6,0.4-1,0.6
		c-0.5,0.3-0.9,0.6-1.4,0.9c-0.3,0.2-0.6,0.4-0.8,0.6c-0.5,0.4-1,0.8-1.5,1.2c-0.2,0.2-0.4,0.3-0.7,0.5c-0.7,0.6-1.4,1.2-2.1,1.9
		c-3.9,3.8-7.1,8.4-10.3,12.8c-1.7,2.4-3.4,4.8-5.2,7.1l-1.6,2.1c-3.3,4.3-6.8,8.7-10.8,12.6c-2.7,2.7-5.5,4.7-8.5,6.4
		c1.3,5.2,1.9,11.1,1,17.2c2.3-1.6,4.5-3.3,6.6-5.1c7.9-6.9,11.8-16.4,15.7-25.6c1.3-3.1,2.6-6.3,4.1-9.3v0
		C154.3,75.7,160.4,65.2,168.9,58z"/>
	<path d="M35.7,149.5c-0.1,0-0.2-0.1-0.3-0.1c6.9,4.6,14.8,7.2,23.4,7.6c5.6,0.3,11.3-0.5,16.8-2c2.4-0.7,4.9-1.6,7.2-2.6
		c0.2-0.1,0.4-0.2,0.6-0.2c2.5-1.1,4.9-2.4,7.2-3.8c0.1-0.1,0.2-0.2,0.4-0.2c2.8-1.8,5.5-3.8,8.1-6c0.7-0.7,1.5-1.3,2.2-2
		c0.3-0.3,0.5-0.5,0.8-0.8c1-1,1.9-2.1,2.7-3.2c0.7-1,1.4-1.9,2-2.9c2.1-3.5,3.6-7.2,4.5-10.9c0,0,0,0,0,0c0.6-2.4,1.1-4.9,1.3-7.3
		c0-0.3,0.1-0.7,0.1-1c0.3-2.6,0.3-5.2,0.3-7.7c0-0.1,0-0.1,0-0.2c0,0,0,0,0,0c0,0.1,0,0.1-0.1,0.2c-0.2,0.7-0.3,1.4-0.5,2.2
		c-0.1,0.2-0.1,0.4-0.2,0.6c-0.2,0.8-0.4,1.5-0.7,2.3c0,0,0,0.1,0,0.1c-0.1,0.2-0.1,0.4-0.2,0.6c0,0,0,0,0,0c0,0,0,0.1,0,0.1
		c-0.2,0.6-0.4,1.2-0.6,1.8c-0.1,0.2-0.1,0.4-0.2,0.6c-0.3,0.8-0.6,1.5-0.9,2.3c0,0,0,0.1-0.1,0.1c-0.3,0.8-0.7,1.6-1.1,2.4
		c-0.1,0.2-0.2,0.4-0.3,0.6c-0.4,0.8-0.8,1.5-1.2,2.3c0,0,0,0.1-0.1,0.1c-0.1,0.2-0.2,0.3-0.3,0.5c0,0,0,0,0,0
		c-0.2,0.3-0.4,0.6-0.6,1c-5.6,8.1-13.4,14.5-26,16.7c-14.9,2.6-28.3-1.6-35.8-12.5c-7.4-10.8-5.5-26.4,3.5-37.9
		c-16.5,14.4-26.2,36.5-19.6,50.4c1.5,3.7,4.3,6.8,8,9.1c0,0,0,0-0.1,0C36,149.6,35.8,149.6,35.7,149.5z"/>
	<path d="M120.1,52.4c-1.6,0-3.2-0.1-4.7-0.1c-19-0.4-37-0.7-55,9.2C41.2,72.2,26.9,88,22.1,104.1c-2.5,8.5-2.5,17.4,0,26.6
		c1-16.6,9.5-31.9,24.8-44.7C55,79.3,65.5,75,77.2,73.5c0.1,0,0.1,0,0.2,0c5.6-1.2,11.3-1.9,16.9-2.4c0.1,0,0.2,0,0.2,0
		c1.2-0.1,2.5-0.2,3.7-0.2c0.2,0,0.5,0,0.7,0c1.1-0.1,2.2-0.1,3.3-0.2c0.3,0,0.5,0,0.8,0c1.2,0,2.3-0.1,3.4-0.1c0.1,0,0.3,0,0.4,0
		c1.3,0,2.6-0.1,3.8-0.1c1.4,0,2.8-0.1,4.1-0.1c29.1-0.9,55-19.3,71.9-34.8c-4.5,2.8-9.3,5.4-14.3,7.7
		C158,49.8,141.3,52.8,120.1,52.4z"/>
	<path d="M58.6,58.4c18.9-10.4,38.2-10.1,56.8-9.7c1.6,0,3.1,0.1,4.7,0.1c20.7,0.3,36.8-2.5,50.8-9c10.3-4.8,19.8-10.8,27.5-17.6
		c-0.2,0.1-0.5,0.2-0.7,0.4c-0.6,0.3-1.1,0.6-1.7,0.8c-0.7,0.3-1.4,0.7-2.1,1c-0.5,0.3-1.1,0.5-1.6,0.7c-0.7,0.3-1.4,0.7-2.1,1
		c-0.5,0.2-1,0.4-1.4,0.6c-0.7,0.3-1.5,0.6-2.2,1c-0.4,0.2-0.9,0.4-1.3,0.5c-0.8,0.3-1.5,0.6-2.3,0.9c-0.4,0.2-0.8,0.3-1.2,0.4
		c-0.8,0.3-1.6,0.6-2.4,0.9c-0.3,0.1-0.7,0.2-1,0.4c-0.8,0.3-1.7,0.6-2.5,0.8c-0.3,0.1-0.6,0.2-0.9,0.3c-0.9,0.3-1.8,0.5-2.6,0.8
		c-0.3,0.1-0.5,0.1-0.8,0.2c-0.9,0.3-1.8,0.5-2.7,0.7c-0.2,0.1-0.4,0.1-0.6,0.2c-0.9,0.2-1.9,0.4-2.8,0.6c-0.2,0-0.4,0.1-0.5,0.1
		c-1,0.2-1.9,0.4-2.9,0.6c-0.1,0-0.3,0.1-0.4,0.1c-1,0.2-2,0.3-3,0.5c-0.1,0-0.2,0-0.3,0.1c-1,0.1-2,0.3-3,0.4c-0.1,0-0.2,0-0.3,0
		c-1,0.1-2,0.2-3.1,0.2c-0.1,0-0.1,0-0.2,0c-1,0.1-2.1,0.1-3.1,0.1c0,0-0.1,0-0.1,0c-1.1,0-2.2,0-3.2,0c-6.9-0.1-13.8-0.7-20.4-1.3
		c-1.7-0.2-3.4-0.3-5.1-0.5c-0.2,0-0.4,0-0.5,0c-1.6-0.1-3.3-0.3-4.9-0.4c-0.2,0-0.3,0-0.5,0c-1.8-0.1-3.5-0.2-5.3-0.3
		c-0.1,0-0.1,0-0.2,0c-1.7-0.1-3.5-0.1-5.2-0.1c-0.1,0-0.2,0-0.3,0c-0.1,0-0.3,0-0.4,0c-1.2,0-2.3,0-3.5,0.1c-0.1,0-0.2,0-0.2,0
		c-1.1,0-2.2,0.1-3.3,0.2c-0.2,0-0.4,0-0.7,0c-1.1,0.1-2.3,0.2-3.4,0.3c-0.2,0-0.5,0.1-0.7,0.1c-1.2,0.1-2.4,0.3-3.6,0.5
		c-9.9,1.6-19.1,4.9-28.1,9.9c-15.7,8.7-28.7,22.2-35.7,37c-0.5,1.1-1,2.2-1.5,3.4c0,0,0,0.1,0,0.1c-0.1,0.3-0.3,0.7-0.4,1
		c0,0,0,0.1,0,0.1c-0.3,0.7-0.5,1.4-0.8,2.2c0,0.1,0,0.1-0.1,0.2c-0.1,0.4-0.2,0.8-0.4,1.2c0,0.1,0,0.2-0.1,0.2
		c-0.2,0.6-0.4,1.3-0.6,1.9c0,0.1-0.1,0.2-0.1,0.2c-0.1,0.4-0.2,0.8-0.3,1.2c0,0.1-0.1,0.2-0.1,0.3c-0.1,0.6-0.3,1.2-0.4,1.7
		c0,0.1-0.1,0.2-0.1,0.3c-0.1,0.4-0.2,0.8-0.2,1.2c0,0.1,0,0.3-0.1,0.4c-0.1,0.6-0.2,1.1-0.3,1.7c0,0.1,0,0.2-0.1,0.4
		c-0.1,0.4-0.1,0.7-0.2,1.1c0,0.2,0,0.4-0.1,0.5c-0.1,0.5-0.1,1.1-0.2,1.6c0,0.1,0,0.3,0,0.4c0,0.3-0.1,0.7-0.1,1c0,0.2,0,0.4,0,0.6
		c0,0.5-0.1,1.1-0.1,1.6c0,0.1,0,0.2,0,0.4c0,0.3,0,0.6,0,0.9c0,0.2,0,0.5,0,0.7c0,0.6,0,1.3,0,1.9c0,0,0,0,0,0c0,0.2,0,0.5,0,0.7
		c0,0,0,0,0,0c0,0,0-0.1,0-0.1c0.3-2.8,0.9-5.5,1.7-8.2C23.7,86.1,38.7,69.4,58.6,58.4z"/>
</g>
</svg>
