<svg xmlns="http://www.w3.org/2000/svg" width="19.998" height="20" viewBox="0 0 19.998 20">
  <g id="icon_wow3_k" transform="translate(-722.307 -186.893)">
    <g id="路径_156" data-name="路径 156" transform="translate(722.307 186.893)">
      <path id="路径_461" data-name="路径 461" d="M740.937,191.836v-2.626H738.71a10,10,0,0,0-12.8,0h-2.1v2.413a10,10,0,0,0,0,10.54v2.455h2.148a10,10,0,0,0,12.7,0h2.277v-2.669a9.993,9.993,0,0,0,0-10.107Zm-.057-2.512-1,1.033a9.955,9.955,0,0,0-.977-.984Zm-16.938.057,1.721.042a10.081,10.081,0,0,0-.809.807Zm.064,15.056.866-.866a10.15,10.15,0,0,0,.934.91Zm8.306,1.037a8.605,8.605,0,1,1,3.931-.947,8.6,8.6,0,0,1-3.931.947Zm8.562-.98-2.013-.05a10.025,10.025,0,0,0,.949-.941Z" transform="translate(-722.307 -186.893)" fill="#989898"/>
    </g>
    <g id="路径_157" data-name="路径 157" transform="translate(726.006 191.447)">
      <path id="路径_462" data-name="路径 462" d="M737.464,193.583a8.582,8.582,0,0,1,1.058-2.144h-3.317a1.052,1.052,0,0,1,.186.815l-1.158,6.948-1.758-6.991-1.93,6.948-1.329-6.862.243-.858H726c.629.343.915,1.544.915,1.544l2.144,8.978c.057.486-.6,1.2-.6,1.2H732a2.312,2.312,0,0,1-.286-1.115l.772-3.288.715,3.2a1.527,1.527,0,0,1-.257,1.172h3.545a2.087,2.087,0,0,1-.315-1.63S737.378,194.241,737.464,193.583Zm-10.893-1.858,2.487-.029-1.029.715Zm2.487,11.122.458-.686-2.1-9.371-.429-.536,1.115.486,2.073,9.449Zm1.723-.75-.107-2.059,1.694-6.926.107,1.844Zm2.509.729c.257-.257.15-.922.15-.922l-.943-3.967.021-2.466,1.5,6.647Zm4.818-11.129-1.387.715-1.1-.686ZM734.9,202.072l-.45-1.823,1.458-7.634-.193-.365.879.515Z" transform="translate(-725.999 -191.439)" fill="#989898"/>
    </g>
  </g>
</svg>
