<svg xmlns="http://www.w3.org/2000/svg" width="20" height="19.925" viewBox="0 0 20 19.925">
  <g id="icon_dota2_k" transform="translate(-692.647 -187.466)">
    <path id="路径_447" data-name="路径 447" d="M712.646,206.792a10.523,10.523,0,0,0-1.059-.291,5.26,5.26,0,0,0-.9-.034c-.065,0-.128.065-.193.1l.149.17.051.057a1.854,1.854,0,0,1-1.05.131c-.4-.012-.8-.02-1.192-.057a3.391,3.391,0,0,1-.54-.145c-.058-.016-.142-.048-.177-.022a1.977,1.977,0,0,1-1.156.221c-.578.034-1.159.012-1.739.006a2.333,2.333,0,0,0-1.369.339.331.331,0,0,1-.466-.043.344.344,0,0,1-.029-.04.322.322,0,0,0-.195-.077,4.019,4.019,0,0,1-.528-.067c-.406-.118-.508-.1-.79.221-.144.162-.227.174-.371.008a2.459,2.459,0,0,1-.356-.513c-.087-.18-.177-.165-.324-.094a.534.534,0,0,1-.266.04c-.484-.042-.968-.112-1.453-.134-.3-.015-.622.063-.932.055-.458-.013-.914-.063-1.373-.1a.891.891,0,0,0-.107-.006c-.722.034-1.442.092-2.165.091a5.822,5.822,0,0,1-1.128-.172.262.262,0,0,1-.148-.21,25.092,25.092,0,0,0-.018-3.076.985.985,0,0,1,.174-.537,1.177,1.177,0,0,0,.265-.647c.034-.406.077-.822.1-1.232a.542.542,0,0,0-.253-.518.573.573,0,0,1-.214-.351,7.382,7.382,0,0,1-.071-.931c-.012-.346,0-.692,0-1.057.455-.2.542-.326.522-.842a.583.583,0,0,0-.122-.332,1,1,0,0,1-.229-.914,3.674,3.674,0,0,0-.17-1.857,4.254,4.254,0,0,1-.1-2.055,7.057,7.057,0,0,0,.09-3.08,2.518,2.518,0,0,1,.037-.771c.013-.124.1-.172.23-.171,1.244.014,2.488.02,3.732.027.274,0,.547,0,.821.006.05,0,.119,0,.146.032.191.224.448.154.687.162s.48,0,.712.031a2.312,2.312,0,0,0,1.523-.519.732.732,0,0,1,.348-.122c.831-.01,1.663-.006,2.495,0,.112,0,.226.02.361.033l-.147.318c.2.026.392.057.578.07a.278.278,0,0,1,.293.187.429.429,0,0,0,.317.2,3.341,3.341,0,0,0,.687-.077.185.185,0,0,0,.107-.129c.079-.508.126-.581.727-.58s1.2.047,1.8.084c.368.023.734.077,1.1.1.222.014.355.094.372.327a.774.774,0,0,0,.075.171,3.345,3.345,0,0,0,.276-.286c.1-.14.2-.2.382-.1a.823.823,0,0,0,.356.067c.318.018.638.015.953.044a.958.958,0,0,1,.323.15c.057.03.1.081.158.112.092.051.25.072.274.143a.787.787,0,0,1,.041.488,3.567,3.567,0,0,0-.007,1.393c.019,1.218.019,2.447.023,3.671a.407.407,0,0,1-.29.389c-.291.122-.284.132-.21.436a.285.285,0,0,1-.034.195,2.645,2.645,0,0,0-.208.275.619.619,0,0,0-.033.316.454.454,0,0,0,.121.2,2.287,2.287,0,0,1,.431,1.763c-.016.282-.055.563-.063.845a.257.257,0,0,1-.183.277,2.023,2.023,0,0,0-.229.116l.075.131h.458c.125,0,.179.044.178.18-.01,1.523-.018,3.053-.017,4.58,0,.578.033,1.158.042,1.738C712.651,205.786,712.646,206.277,712.646,206.792Zm-17.768-15.527c0,.229.21.348.361.508.948,1,1.892,2,2.843,2.989.39.406.812.791,1.2,1.2,1.155,1.2,2.321,2.387,3.445,3.613.439.479.956.865,1.372,1.375.721.885,1.533,1.7,2.317,2.53a.786.786,0,0,0,.42.245c.667.085,1.338.137,2.007.195a.472.472,0,0,0,.472-.284,11.9,11.9,0,0,0,1.1-3.351.256.256,0,0,0-.163-.322l-.008,0a2.736,2.736,0,0,1-.374-.258,4.892,4.892,0,0,0-1.437-.9.527.527,0,0,1-.147-.091c-.364-.259-.727-.52-1.09-.778-.444-.313-.884-.63-1.336-.931-.615-.406-1.248-.788-1.86-1.2-.793-.534-1.574-1.085-2.359-1.626a24.077,24.077,0,0,0-2.8-1.714,1.33,1.33,0,0,1-.323-.335c-.072-.081-.12-.194-.2-.252-.508-.337-1.023-.654-1.523-1a.784.784,0,0,0-.782-.087c-.376.145-.746.306-1.133.466Zm1.523,8.057-.283.657-.888,2.1a.658.658,0,0,0,.184.912.551.551,0,0,0,.088.05.39.39,0,0,1,.051.04c.336.283.668.571,1.015.846a.626.626,0,0,0,.321.151,3.089,3.089,0,0,0,1.855-.29.252.252,0,0,1,.1-.038,5.179,5.179,0,0,0,1.359-.419c.078-.027.154-.058.291-.11Zm8.122-7.638a1.251,1.251,0,0,0,.154.195c.553.43,1.1.863,1.664,1.285s1.135.846,1.715,1.249a.608.608,0,0,0,.422.076c.058-.011.1-.2.123-.312.067-.383.088-.778.189-1.152a4,4,0,0,0,.155-1.241c0-.06-.014-.148-.053-.171-.421-.253-.847-.5-1.274-.736a.2.2,0,0,0-.142,0c-.591.163-1.18.332-1.773.495-.388.1-.771.2-1.188.308Z" fill="#989898"/>
  </g>
</svg>
