<svg xmlns="http://www.w3.org/2000/svg" width="19.996" height="17.897" viewBox="0 0 19.996 17.897">
  <g id="icon_streetfight_k" transform="translate(-184.337 -221.289)">
    <g id="路径_201" data-name="路径 201">
      <path id="路径_506" data-name="路径 506" d="M193.456,233.4a4.962,4.962,0,0,0,1.345-2.956,2.32,2.32,0,0,0-.268-1.335,3.85,3.85,0,0,0-1.242-1.327c-.3-.2-.619-.394-.906-.621a1.46,1.46,0,0,1-.314-2.035,2.617,2.617,0,0,1,.706-.728c.525-.349,1.041-.718,1.594-1.019a16.731,16.731,0,0,1,4.412-1.675c.027-.006.053-.016.08-.024a9.266,9.266,0,0,0-2.349.3l-.007-.028.482-.249-.013-.03a9.553,9.553,0,0,0-1.731.494,9.3,9.3,0,0,1,1.59-.849l-.01-.026c-.313.084-.625.17-.939.25a29.606,29.606,0,0,0-3.589,1.112,12.08,12.08,0,0,0-2.381,1.2,5.34,5.34,0,0,0-1.438,1.381,2.532,2.532,0,0,0,.083,2.892,2.591,2.591,0,0,0,.964.753,7.758,7.758,0,0,1,.8.427,1.081,1.081,0,0,1,.429,1.468l-.029.049a2.832,2.832,0,0,1-.761.917,16.985,16.985,0,0,1-5.327,2.822c-.1.034-.2.054-.3.081v.032a1.739,1.739,0,0,0,.294.05c.313,0,.627-.007.94-.016a16.187,16.187,0,0,0,3.1-.4l.672-.148a11.615,11.615,0,0,1-2.891,1.2.262.262,0,0,0,.088.007c.418-.034.835-.071,1.253-.1a2.9,2.9,0,0,1,.991.049c.375.1.441.226.209.6a2.862,2.862,0,0,1-.4.431c-.07.072-.144.141-.216.211l.018.031c.124-.047.253-.086.372-.144.647-.311,1.3-.613,1.935-.942A9.152,9.152,0,0,0,193.456,233.4Z" fill="#989898"/>
    </g>
    <g id="路径_202" data-name="路径 202">
      <path id="路径_507" data-name="路径 507" d="M203.71,226.481c-.532.007-1.064.028-1.6.02a10.188,10.188,0,0,1-1.117-.076c-.273-.03-.542-.1-.814-.142a.242.242,0,0,1-.189-.174.44.44,0,0,1,.081-.456c.081-.1.166-.2.223-.273a1.292,1.292,0,0,0-.678.368c.154-.446.564-.611.909-.851a17.635,17.635,0,0,0-6.274,2.958c.049.07.094.139.144.2.183.24.372.477.552.719a1.473,1.473,0,0,1,.275.627,4.09,4.09,0,0,1-.335,2.41,7.287,7.287,0,0,1-1.046,1.635,20.963,20.963,0,0,1-1.726,1.874c-.075.073-.137.159-.205.239l.019.018,1.9-1.1a9.5,9.5,0,0,0,1.725,4.347,7.5,7.5,0,0,1-.461-1.664,1.136,1.136,0,0,1,.184.131,2.676,2.676,0,0,1,.275.344c.2.318.395.644.592.966.033.053.073.1.11.151l.033-.016-.324-.879.016-.009.988,1.338a.075.075,0,0,0,.015-.066c-.1-.508-.2-1.015-.291-1.524a15.7,15.7,0,0,1-.261-2.215,14.778,14.778,0,0,1,.087-1.821c.015-.175.033-.206.2-.247s.34-.071.511-.1c.539-.093,1.078-.187,1.619-.271.208-.032.42-.038.638-.056.008-.074.017-.144.023-.215a2.345,2.345,0,0,1,.406-1.2,6.064,6.064,0,0,1,2.364-2.011c.031-.015.059-.033.089-.05-.025-.025-.043-.03-.059-.028a23.348,23.348,0,0,0-5.1,1.386c.015-.053.022-.089.035-.122q.423-1.068.85-2.136a.208.208,0,0,1,.1-.092c.214-.1.431-.183.645-.277a15.914,15.914,0,0,1,2.617-.948c.825-.2,1.652-.392,2.479-.587.085-.02.17-.038.254-.056.049-.01.1-.016.149-.024v-.047C204.125,226.481,203.917,226.479,203.71,226.481Z" fill="#989898"/>
    </g>
  </g>
</svg>
