<svg xmlns="http://www.w3.org/2000/svg" width="20" height="18.495" viewBox="0 0 20 18.495">
  <g id="icon_king_k" transform="translate(-782.317 -187.839)">
    <g id="路径_138" data-name="路径 138" transform="translate(786.589 187.996)">
      <path id="路径_443" data-name="路径 443" d="M799.129,202.356l-1.884,1.914c.148.318.148.318-.19.55a8.9,8.9,0,0,1-10.269-.24c-.22-.166-.433-.344-.63-.5l2.116-2.177a5.982,5.982,0,0,0,7.871-.232,6.275,6.275,0,0,0,.664-8.452L801.841,188l.043.027c-.036.061-.07.124-.107.184a7.8,7.8,0,0,0-.956,6.4,9.337,9.337,0,0,1-1.149,7.538C799.449,202.508,799.444,202.5,799.129,202.356Z" transform="translate(-786.156 -187.996)" fill="#989898"/>
    </g>
    <g id="路径_139" data-name="路径 139" transform="translate(782.317 187.839)">
      <path id="路径_444" data-name="路径 444" d="M795.924,192.291a5.965,5.965,0,0,0-8.514.928,6.179,6.179,0,0,0-.777,1.272,6.02,6.02,0,0,0,.64,6.291c.13.186.123.275-.033.431q-2.338,2.366-4.664,4.748a2.123,2.123,0,0,0-.183.25l-.076-.062c.043-.074.085-.148.13-.22a7.685,7.685,0,0,0,.95-6.265,9.455,9.455,0,0,1,.979-7.389c.118-.208.261-.4.4-.613l.293.158,1.894-1.93-.174-.28a8.619,8.619,0,0,1,5.411-1.771,8.824,8.824,0,0,1,5.868,2.267Z" transform="translate(-782.317 -187.839)" fill="#989898"/>
    </g>
    <g id="路径_140" data-name="路径 140" transform="translate(792.608 192.072)">
      <path id="路径_445" data-name="路径 445" d="M796.229,196.371c-.242,0-.2.151-.2.283a3.912,3.912,0,0,1-1.9,3.57,3.538,3.538,0,0,1-1.772.545,1.1,1.1,0,0,1-.022-.151c0-.724,0-1.447-.007-2.17a.226.226,0,0,1,.176-.256,1.356,1.356,0,0,0,.946-1.325,1.377,1.377,0,0,0-.964-1.317.264.264,0,0,1-.148-.186c-.009-1.109-.006-2.217-.005-3.325a1.157,1.157,0,0,1,.028-.143c.05.111.078.178.108.243a1.563,1.563,0,0,0,.951.825,4.079,4.079,0,0,1,2.738,3.024C796.189,196.1,796.2,196.218,796.229,196.371Z" transform="translate(-792.331 -191.896)" fill="#989898"/>
    </g>
    <g id="路径_141" data-name="路径 141" transform="translate(788.161 193.21)">
      <path id="路径_446" data-name="路径 446" d="M791.832,193c0,.07.01.146.01.222V195.3c0,.149-.023.232-.2.284a1.35,1.35,0,0,0-.928,1.266,1.335,1.335,0,0,0,.875,1.324.318.318,0,0,1,.247.37c-.01,1.022,0,2.044,0,3.066a1.238,1.238,0,0,1-.02.265,1.869,1.869,0,0,0-1.285-1.174,4.051,4.051,0,0,1-2.515-3.1c-.02-.1-.052-.2.1-.24.035-.008.055-.145.051-.222a3.937,3.937,0,0,1,3.5-4.148.639.639,0,0,1,.1-.005A.324.324,0,0,1,791.832,193Z" transform="translate(-788.004 -192.986)" fill="#989898"/>
    </g>
  </g>
</svg>
