<svg xmlns="http://www.w3.org/2000/svg" width="20" height="20" viewBox="0 0 20 20">
  <g id="icon_fortnite_k" transform="translate(-313.982 -221.519)">
    <path id="路径_523" data-name="路径 523" d="M333.981,223.694a2.084,2.084,0,0,0-.049-.445,2.154,2.154,0,0,0-.889-1.333,2.178,2.178,0,0,0-1.3-.4H316.159a2.071,2.071,0,0,0-.445.052,2.154,2.154,0,0,0-1.333.889,2.18,2.18,0,0,0-.4,1.3v15.579a2,2,0,0,0,.05.444,2.21,2.21,0,0,0,2.178,1.735h15.522a2.215,2.215,0,0,0,2.249-2.239Zm-2.778,1.778-.29,1.736c-.085.5-.173,1.01-.251,1.515a1.29,1.29,0,0,0,.013.29q.06.841.111,1.685c.036.562.073,1.129.117,1.7s.078,1.122.117,1.685c.034.489.065.978.1,1.467.018.272.042.543.061.813v.193l-6.083-.4v2.3c0,.065-.007.1-.086.111-.6.111-1.2.239-1.8.358l-1.958.39-1.1.221a.406.406,0,0,1-.075,0v-2.9l-3.333,1c.01-.173.018-.334.028-.486.014-.2.03-.4.042-.6q.04-.6.083-1.2c.017-.267.034-.537.052-.8.022-.315.045-.631.065-.946.017-.267.034-.537.052-.8.022-.314.045-.631.064-.946.018-.267.034-.537.053-.8.021-.314.045-.63.064-.946.018-.263.047-.525.047-.787a4.29,4.29,0,0,0-.068-.526l-.159-1.11-.154-1.109-.154-1.085v-.076h3.2c.131,0,.124.021.124-.127v-1.436c0-.083.022-.11.111-.11h7.935l-.334,1.667h3.41a.346.346,0,0,1,0,.069Zm-9.985-.612h5.532c-.021.111-.038.216-.06.32q-.231,1.161-.465,2.321c-.022.119-.022.119-.147.119h-2.1v2.233h2.207v2.674c0,.081-.027.1-.1.1h-2a.693.693,0,0,0-.119,0v5l-2.76.555Z" transform="translate(0 0)" fill="#989898"/>
  </g>
</svg>
