<svg xmlns="http://www.w3.org/2000/svg" width="19.506" height="20" viewBox="0 0 19.506 20">
  <g id="icon_lol_k" transform="translate(-658.385 -187.174)">
    <g id="路径_143" data-name="路径 143" transform="translate(668.59 188.229)">
      <path id="路径_448" data-name="路径 448" d="M676.364,197.692a8.459,8.459,0,0,1-1.929,5.386h1.206a9.458,9.458,0,0,0-7.613-14.849v.965A8.511,8.511,0,0,1,676.364,197.692Z" transform="translate(-668.028 -188.229)" fill="#989898"/>
    </g>
    <g id="路径_144" data-name="路径 144" transform="translate(658.385 189.899)">
      <path id="路径_449" data-name="路径 449" d="M661.863,205.327l.1-.178.19-.356.095-.178a9.05,9.05,0,0,1-.786-12.437,8.616,8.616,0,0,1,1.029-1.03V189.9a10.055,10.055,0,0,0-2.438,13.65,9.733,9.733,0,0,0,1.711,1.957Z" transform="translate(-658.385 -189.899)" fill="#989898"/>
    </g>
    <g id="路径_145" data-name="路径 145" transform="translate(668.587 190.765)">
      <path id="路径_450" data-name="路径 450" d="M674.1,197.691a6.246,6.246,0,0,1-3.089,5.386h1.631a7.2,7.2,0,0,0-4.619-12.591v.965A6.251,6.251,0,0,1,674.1,197.691Z" transform="translate(-668.025 -190.486)" fill="#989898"/>
    </g>
    <g id="路径_146" data-name="路径 146" transform="translate(660.653 193.22)">
      <path id="路径_451" data-name="路径 451" d="M662.5,194.142v-1.257a7.191,7.191,0,0,0,0,9.614v-1.62a6.226,6.226,0,0,1,0-6.374Z" transform="translate(-660.653 -192.885)" fill="#989898"/>
    </g>
    <g id="路径_147" data-name="路径 147" transform="translate(662.128 187.174)">
      <path id="路径_452" data-name="路径 452" d="M674.9,204.212h-7.515V187.174h-5.618l1.37,1.811v15.32l-.285.519-.1.175-.095.175-.19.347-.1.174-.095.174-.717,1.3h13.567l2.124-2.963H674.9Z" transform="translate(-661.566 -187.174)" fill="#989898"/>
    </g>
  </g>
</svg>
