<svg xmlns="http://www.w3.org/2000/svg" width="20" height="11.318" viewBox="0 0 20 11.318">
  <g id="icon_starcraft_k" transform="translate(-598.075 -191.295)">
    <g id="路径_152" data-name="路径 152" transform="translate(599.807 201.069)">
      <path id="路径_457" data-name="路径 457" d="M600.111,201.139a1.828,1.828,0,0,0-.3.228l2.7-.038q-.306-.115-.568-.2A2.162,2.162,0,0,0,600.111,201.139Z" transform="translate(-599.807 -200.934)" fill="#989898"/>
    </g>
    <g id="路径_153" data-name="路径 153" transform="translate(598.075 191.295)">
      <path id="路径_458" data-name="路径 458" d="M612.19,193.817h2.418l.681.529a.48.48,0,0,0,.649-.055l2.012-2.189a.48.48,0,0,0-.354-.8h-7.447a.481.481,0,0,0-.354.156l-1.322,1.441a.478.478,0,0,0-.069.55.492.492,0,0,0-.057.065,5.439,5.439,0,0,0-.749,2.649,7.321,7.321,0,0,0,.1,1.966l-3.782-4.32,1.394.015.587.514a.481.481,0,0,0,.669-.035l2.014-2.194a.48.48,0,0,0-.35-.809h-.7c-.057,0-5.688.06-6.966.06a1.824,1.824,0,0,0-1.8,1.846v.026a.483.483,0,0,0,.034.2c.1.245.278.29.535.3a.485.485,0,0,0,.113.306c.174.2,3.737,4.4,5,5.828-.821.017-2.189.046-2.587.046a1.532,1.532,0,0,1-.832-.549.481.481,0,0,0-.677-.062.382.382,0,0,0-.029.027l-2.1,2.072a.48.48,0,0,0,.337.823h0c.077,0,7.695-.029,8.436-.029a1.969,1.969,0,0,0,1.764-1.811c.135.165.274.319.412.463a6.071,6.071,0,0,0,4.218,1.768,5.594,5.594,0,0,0,.6-.032c2.179-.235,2.633-1.239,2.678-1.353a.48.48,0,0,0-.272-.622.472.472,0,0,0-.205-.032,5.281,5.281,0,0,1-2.621-.48l-.143-.058a3.435,3.435,0,0,1-1.866-2.66,6.957,6.957,0,0,1,.591-3.384A.471.471,0,0,0,612.19,193.817Zm-10.755-2.056h6.391a2.013,2.013,0,0,1,.22.019l.092.01a1.286,1.286,0,0,1-.159.188c-.536.415-.719.824-1.253,1.24a.3.3,0,0,1-.422.012.261.261,0,0,1-.028-.03h0c-.3-.32-.434-.62-.909-.615-1.493.015-2.986-.008-4.478-.016a2.468,2.468,0,0,1-.324-.006,3.95,3.95,0,0,0-.705.175h-.027a.57.57,0,0,1,.132-.463,2.067,2.067,0,0,1,.846-.432,2.566,2.566,0,0,1,.626-.083Zm2.929,9.989H598.79l-.006-.006-.078-.088c.608-.577,1.209-1.158,1.83-1.72a.363.363,0,0,1,.342.008,2.466,2.466,0,0,0,.333.217,2.421,2.421,0,0,0,.63.232,3.556,3.556,0,0,0,.872.072c.909-.026,1.821-.006,2.733-.006l.042.2-.421.155-.2.073.011.051a7.183,7.183,0,0,0,1.294-.017.632.632,0,0,0,.451-.77.608.608,0,0,0-.088-.2,3.985,3.985,0,0,0-.515-.7c-1.249-1.436-2.189-2.608-3.457-4.027a2.5,2.5,0,0,0-1.394-.672c-.121-.028-.243-.055-.363-.084a3.831,3.831,0,0,1-.485-.173l-.052-.02.006-.032.02-.1a2.788,2.788,0,0,1,.331-.041c.9-.005,1.784-.021,2.675,0a.821.821,0,0,1,.355.108.722.722,0,0,1,.2.151c.786.9,1.48,1.724,2.176,2.557.58.7,1.163,1.394,1.805,2.159a3.056,3.056,0,0,1,.418.863c.039.1-.016.24-.034.42l-.413-.26-.832-.524c0,.111-.007.186,0,.259a1.3,1.3,0,0,1-.686,1.382,1.556,1.556,0,0,1-.767.153c-.746-.028-1.493-.019-2.24-.023a1.6,1.6,0,0,0-.267.044l-.007.116,1.367.138v.087Zm7.092-10.019c1.057-.009,2.114-.006,3.173-.009q1.293,0,2.587-.01h.229l-.061.064-1.656,1.748a.842.842,0,0,0,.01-.428c-.077-.278-.336-.415-.625-.521a1.4,1.4,0,0,0-.411-.006l.2.306.043.068h-4.08v-.106c.54-.282,1.149.019,1.73-.158-.208-.166-.255-.2-1.205-.135a6.494,6.494,0,0,0-1.148.276l-.046-.1.765-.467.171-.1-.249-.342c.077-.01.147-.022.215-.034A2.528,2.528,0,0,1,611.456,191.73Zm.15,2.3a3.063,3.063,0,0,0-.619.3,2.026,2.026,0,0,1-.388.151c.053.173-.274.271-.226.43l.5-.223.588-.262h.009c-.072.348-.121.631-.188.91a5.661,5.661,0,0,0-.075,2.7,4.1,4.1,0,0,0,.353.934,3,3,0,0,0,.6.747c.187.179.39.347.588.507l.076.061a7.786,7.786,0,0,0,1.3.7c.07.035.141.07.212.1l-.02.077a1.183,1.183,0,0,1-.28.021,3.069,3.069,0,0,1-2.229-1.3c-.056-.087-.156-.143-.22-.226a6.351,6.351,0,0,1-.381-.533c-.067-.106-.08-.248-.149-.351s-.138-.2-.208-.3c-.208-.3-.421-.588-.621-.889a1.794,1.794,0,0,1-.146-.363,2.26,2.26,0,0,0,.3,1.858,3.8,3.8,0,0,0,3.374,2.237h.3c.6,0,1.21-.066,1.816-.1a.656.656,0,0,1,.23.025c.018.005.036.012.055.019a4.751,4.751,0,0,1-.47.333.817.817,0,0,1-.585.1,1.943,1.943,0,0,0-.612-.025,4.487,4.487,0,0,1-1.029,0,5.4,5.4,0,0,1-1.176-.274,4.61,4.61,0,0,1-2.159-1.739,5,5,0,0,1-.616-4.29c.146-.663.189-.8-.137-1.079-.089-.075-.2-.16-.35-.269-.015-.011-.015-.042-.031-.09h2.639l.007.049.01.063Z" transform="translate(-598.075 -191.295)" fill="#989898"/>
    </g>
  </g>
</svg>
