<?xml version="1.0" encoding="utf-8"?>
<!-- Generator: Adobe Illustrator 23.0.6, SVG Export Plug-In . SVG Version: 6.00 Build 0)  -->
<svg version="1.1" id="圖層_1" xmlns="http://www.w3.org/2000/svg" xmlns:xlink="http://www.w3.org/1999/xlink" x="0px" y="0px"
	 viewBox="0 0 20 20" style="enable-background:new 0 0 20 20;" xml:space="preserve">
<style type="text/css">
	.st0{fill:#989898;}
</style>
<g>
	<path class="st0" d="M10,2.9c1.7,0,3.2,0.6,4.4,1.5l1.8-2.1C14.5,1,12.3,0.1,10,0.1S5.5,1,3.8,2.3l1.8,2.1C6.8,3.5,8.3,2.9,10,2.9z
		"/>
	<path class="st0" d="M16.7,2.8l-1.8,2.1c1.4,1.3,2.2,3.1,2.2,5.2c0,1.3-0.3,2.5-0.9,3.5l-3.9-3.7l-1.8-4.1V12l3.9,3.6
		c-1.2,1-2.7,1.5-4.4,1.5c-1.7,0-3.2-0.6-4.4-1.5L9.5,12V5.8L7.7,9.9l-3.9,3.7c-0.6-1-0.9-2.2-0.9-3.5c0-2,0.9-3.9,2.2-5.2L3.3,2.8
		c-2,1.8-3.2,4.4-3.2,7.3c0,5.5,4.4,9.9,9.9,9.9s9.9-4.4,9.9-9.9C19.9,7.2,18.6,4.6,16.7,2.8z"/>
</g>
</svg>
