<svg xmlns="http://www.w3.org/2000/svg" width="20" height="19.997" viewBox="0 0 20 19.997">
  <g id="icon_hearthstone_k" transform="translate(-906.987 -186.901)">
    <g id="路径_165" data-name="路径 165" transform="translate(913.152 192.505)">
      <path id="路径_470" data-name="路径 470" d="M920.535,195.053a1.394,1.394,0,0,0-.175-.5c-.317-.415-.673-.8-1-1.208a.376.376,0,0,0-.506-.161l-.006,0a.2.2,0,0,1-.282-.065.236.236,0,0,1-.018-.035c-.018-.042-.1-.058-.157-.083s-.16-.034-.187-.081a.2.2,0,0,0-.22-.105,1.073,1.073,0,0,1-.913-.234.173.173,0,0,0-.146-.01c-.132.045-.26.1-.387.155-.19-.257-.261-.282-.562-.186a1.321,1.321,0,0,0-.317.135q-.615.4-1.218.818a1.267,1.267,0,0,0-.313.289,2.6,2.6,0,0,1-.782.775l-.208.124c.028.208.064.4.078.6.026.356.031.714.061,1.069a.465.465,0,0,0,.117.273,2.645,2.645,0,0,1,.507.716,1.466,1.466,0,0,0,.279.389c.233.234.562.373.7.707a.05.05,0,0,0,.018.02,1,1,0,0,0,.852.21c.292-.055.579-.132.867-.207a.666.666,0,0,0,.24-.1c.223-.171.439-.352.653-.535a.262.262,0,0,0,.071-.139,2.265,2.265,0,0,0,.007-.876,1.01,1.01,0,0,0-.764-.82c-.058-.01-.121.006-.18,0a1.37,1.37,0,0,0-.814.16l.218.634a1.559,1.559,0,0,1-.242.12c-.094.028-.23.077-.289.035a1.06,1.06,0,0,1-.423-.884,3.358,3.358,0,0,1,.133-.79.639.639,0,0,1,.159-.283,3.474,3.474,0,0,1,.413-.362,1.366,1.366,0,0,1,.317-.182,1.948,1.948,0,0,1,.384-.1,2.653,2.653,0,0,1,.589-.081,7.471,7.471,0,0,1,.787.12.432.432,0,0,1,.339.246,4.864,4.864,0,0,0,.28.471,1.332,1.332,0,0,1,.224.755,7.083,7.083,0,0,0,.057.987.739.739,0,0,1-.1.531,4.622,4.622,0,0,1-.8,1.045,3.683,3.683,0,0,1-.586.486,3.89,3.89,0,0,1-1.168.441,1.076,1.076,0,0,0-.679.277.956.956,0,0,1-.587.315,3.451,3.451,0,0,0-1.024.442.49.49,0,0,0-.092.077c.138.176.226.393.476.445.1.021.2.052.3.07.191.035.385.057.575.1s.351.09.525.137c.072.02.146.073.213.063a3.007,3.007,0,0,0,1.022-.242,1.385,1.385,0,0,1,.881-.133.618.618,0,0,0,.308-.059c.172-.073.333-.173.5-.251a2.034,2.034,0,0,0,.663-.489,7.054,7.054,0,0,1,.673-.632.648.648,0,0,0,.27-.481,1.658,1.658,0,0,1,.4-1,.688.688,0,0,0,.129-.273,3.571,3.571,0,0,0,.061-.45c.023-.226.023-.456.064-.679a1.245,1.245,0,0,0-.031-.588C920.674,195.679,920.619,195.362,920.535,195.053Z" transform="translate(-913.138 -192.491)" fill="#989898"/>
    </g>
    <g id="路径_166" data-name="路径 166" transform="translate(906.987 186.901)">
      <path id="路径_471" data-name="路径 471" d="M926.934,196.823l-.057-.036-.089-.055-.655-.392-2.811-1.682a.349.349,0,0,1-.116-.139c-.207-.4-.391-.775-.56-1.13a.308.308,0,0,1-.034-.176c.1-.423.208-.851.313-1.266l.109-.431c.043-.169.085-.339.128-.515l.056-.227a.089.089,0,0,0-.066-.108.1.1,0,0,0-.034,0l-.076.014c-.048.009-.09.016-.131.027l-.6.153c-.533.136-1.082.276-1.625.41a.3.3,0,0,1-.176-.034c-.366-.174-.742-.36-1.152-.571a.356.356,0,0,1-.137-.118q-.819-1.361-1.633-2.728l-.448-.749c-.016-.027-.034-.054-.054-.083l-.03-.045a.1.1,0,0,0-.076-.04.092.092,0,0,0-.075.043l-.034.055-.056.092-.391.654-1.683,2.812a.311.311,0,0,1-.127.111c-.172.088-.345.173-.518.258-.209.1-.425.21-.636.319a.218.218,0,0,1-.176.025q-1-.255-2-.5l-.268-.067c-.034-.009-.069-.015-.109-.023l-.061-.015a.09.09,0,0,0-.1.077.093.093,0,0,0,0,.033l.143.569c.157.625.311,1.239.468,1.853a.213.213,0,0,1-.026.175c-.107.2-.211.415-.312.617-.087.174-.174.349-.263.523a.364.364,0,0,1-.123.149q-1.37.825-2.744,1.643l-.7.418-.1.065-.062.039a.089.089,0,0,0-.027.124.092.092,0,0,0,.027.028l.056.035.089.055.652.39q1.409.841,2.814,1.684a.325.325,0,0,1,.113.125c.194.38.392.776.585,1.177a.236.236,0,0,1,.027.14c-.08.335-.166.675-.25,1l-.1.393c-.059.234-.118.47-.178.711l-.084.335a.091.091,0,0,0,.067.108.074.074,0,0,0,.033,0l.055-.01c.036-.006.066-.011.1-.019l.575-.144c.568-.143,1.156-.29,1.733-.432a.24.24,0,0,1,.137.026c.409.2.781.385,1.14.57a.391.391,0,0,1,.159.131c.551.914,1.107,1.846,1.646,2.746l.43.719c.017.028.035.055.055.087l.032.049a.091.091,0,0,0,.076.041h0a.089.089,0,0,0,.076-.042l.032-.05c.02-.032.038-.059.054-.087l.425-.711,1.65-2.754a.412.412,0,0,1,.16-.13c.175-.091.352-.179.53-.267l.6-.3a.218.218,0,0,1,.175-.029q.954.245,1.9.483l.332.083c.04.01.08.018.124.027l.066.014a.09.09,0,0,0,.106-.07.077.077,0,0,0,0-.03l-.006-.041a.228.228,0,0,0-.012-.064l-.138-.551c-.147-.589-.3-1.2-.446-1.8a.26.26,0,0,1,.025-.15c.182-.378.372-.757.563-1.128a.411.411,0,0,1,.129-.16c.908-.548,1.834-1.1,2.73-1.635l.747-.447c.027-.016.053-.034.083-.053l.046-.031a.09.09,0,0,0,.027-.124.088.088,0,0,0-.027-.027Zm-19.37.179h2.744a8.056,8.056,0,0,0,.252,1.79Zm15.274-5.779-.469,1.861-.353-.168a6.265,6.265,0,0,0-.411-.481Zm-7.881-.531q.8-1.346,1.61-2.69l.29-.493v2.8c0,.061-.009.076-.061.1a6.428,6.428,0,0,0-1.876.316.261.261,0,0,0,.034-.033Zm-3.79.732-.057-.231,1.2,1.184a6.59,6.59,0,0,0-.695.85.406.406,0,0,0-.01-.059c-.151-.581-.3-1.172-.439-1.743Zm.127,11.331,1.224-1.219a6.707,6.707,0,0,0,.548.464l.1.287Zm1.789-1.971a5.5,5.5,0,0,1,3.893-9.37h0a5.489,5.489,0,0,1,0,10.979h0a5.46,5.46,0,0,1-3.892-1.609Zm3.767,5.484-1.812-3.014a6.909,6.909,0,0,0,1.812.285Zm5.813-3.516-.415-.1-.467-.113c-.332-.08-.665-.16-1-.243l.019-.01-.126-.015a.474.474,0,0,0-.092-.011l-.145-.017a6.376,6.376,0,0,0,.939-.746Zm.709-3.95.028-.116c.058-.243.113-.474.152-.712s.059-.48.081-.732c.007-.082.014-.165.022-.249H926.4Z" transform="translate(-906.987 -186.901)" fill="#989898"/>
    </g>
  </g>
</svg>
