<svg xmlns="http://www.w3.org/2000/svg" width="20" height="19.036" viewBox="0 0 20 19.036">
  <g id="icon_rocketleague_k" transform="translate(-122.482 -220.744)">
    <g id="路径_172" data-name="路径 172" transform="translate(127.448 220.948)">
      <path id="路径_477" data-name="路径 477" d="M142.152,223.094a21.236,21.236,0,0,0-2.781-1.224,25.312,25.312,0,0,0-10.684-.617c-.311.04-.619.1-.964.164a3.4,3.4,0,0,1-.325,3.865.343.343,0,0,0,.481.062.361.361,0,0,0,.086-.1c.156-.215.312-.186.514-.087a2.247,2.247,0,0,0,1.561.432.254.254,0,0,1,.131.038c.27.113.543.22.808.345.484.229.818-.032,1.211-.348l-.929-.329.041-.171,2.819.505-.137-.358a1.222,1.222,0,0,1,.418,0,1.209,1.209,0,0,1,.711.625,7.665,7.665,0,0,0,1.113,1.3c.069.077.128.163.161.207l-.541.177.029.106a1.742,1.742,0,0,1,1.484.363l-.969.571.039.125c.118-.021.238-.036.354-.065a3.2,3.2,0,0,1,.982-.235,3.8,3.8,0,0,1,3.01,1.817,4.924,4.924,0,0,1,.237.486,1.511,1.511,0,0,0,.1-.155,15.243,15.243,0,0,0,1.294-7.085A.567.567,0,0,0,142.152,223.094Z" transform="translate(-127.398 -220.948)" fill="#989898"/>
    </g>
    <g id="路径_173" data-name="路径 173" transform="translate(123.015 225.934)">
      <path id="路径_478" data-name="路径 478" d="M139.273,231.772a3,3,0,0,1-2.3-.952c-.077.064-.14.114-.2.167a1.066,1.066,0,0,1-1.662-.379c-.136-.479-.423-.6-.81-.732a6.749,6.749,0,0,1-.82-.422,1.083,1.083,0,0,0-.326-.131c-.36-.051-.723-.081-1.13-.125a1.514,1.514,0,0,1-1.677.994,2.159,2.159,0,0,1-.97-.611,1.416,1.416,0,0,1-.2-1.418c-.275-.027-.538-.135-.708-.053a1.224,1.224,0,0,1-1.366-.142,1.153,1.153,0,0,1-.487-1.275q.029-.157.042-.315l.006.007h0l-.161-.369a3.472,3.472,0,0,1-3.479-.13,1.341,1.341,0,0,0,0,.254c.214.969.4,1.944.656,2.9a2.235,2.235,0,0,0,1.013,1.284,5.538,5.538,0,0,0,2.166.761,15.618,15.618,0,0,1,4.026,1.138,12.217,12.217,0,0,1,4.564,3.3,3.426,3.426,0,0,1,.8,1.64c.018.119.035.24.054.364a.51.51,0,0,0,.105-.038,16.61,16.61,0,0,0,3.56-4.527.762.762,0,0,0-.691-1.19Z" transform="translate(-123.015 -225.886)" fill="#989898"/>
    </g>
    <g id="路径_174" data-name="路径 174" transform="translate(125.422 232.406)">
      <path id="路径_479" data-name="路径 479" d="M134.516,235.335a14.53,14.53,0,0,0-8.1-2.977,4.11,4.11,0,0,0-.586.068c-.408.1-.513.347-.3.715a14.712,14.712,0,0,0,6.932,6.55.6.6,0,0,0,.455-.007c.772-.408,1.544-.819,2.289-1.274a1.146,1.146,0,0,0,.57-1.517,1.093,1.093,0,0,0-.126-.214A5.191,5.191,0,0,0,134.516,235.335Z" transform="translate(-125.422 -232.358)" fill="#989898"/>
    </g>
    <g id="路径_175" data-name="路径 175" transform="translate(122.482 220.744)">
      <path id="路径_480" data-name="路径 480" d="M124.863,225.5a2.349,2.349,0,0,0,2.385-2.311v-.064a2.383,2.383,0,0,0-4.766-.015v0a2.365,2.365,0,0,0,2.345,2.385Z" transform="translate(-122.482 -220.744)" fill="#989898"/>
    </g>
    <g id="路径_176" data-name="路径 176" transform="translate(136.952 228.769)">
      <path id="路径_481" data-name="路径 481" d="M136.9,228.884a1.059,1.059,0,0,1,.271,1.423c-.083.2-.017.309.153.347.479.108.961.21,1.447.284s.95.107,1.439.16C140.11,229.721,137.76,228.291,136.9,228.884Z" transform="translate(-136.902 -228.746)" fill="#989898"/>
    </g>
    <g id="路径_177" data-name="路径 177" transform="translate(131.835 225.778)">
      <path id="路径_482" data-name="路径 482" d="M133.33,225.81a1.249,1.249,0,0,0-.523-.031,7.2,7.2,0,0,0-.954.467.191.191,0,0,0-.035.184c.167.185.343.494.53.5.653.01,1.307-.012,1.958-.067C134.231,226.048,134.091,225.9,133.33,225.81Z" transform="translate(-131.808 -225.765)" fill="#989898"/>
    </g>
    <g id="路径_178" data-name="路径 178" transform="translate(127.431 226.661)">
      <path id="路径_483" data-name="路径 483" d="M129.126,227.425c-.117.008-.249-.2-.375-.306l-.011.008-.574-.482-.083.016a1.312,1.312,0,0,0,.139.351.27.27,0,0,1,.005.38.324.324,0,0,1-.059.046.591.591,0,0,1-.4-.008,1.4,1.4,0,0,1-.321-.184.453.453,0,0,0,.259.587.475.475,0,0,0,.084.024,1.27,1.27,0,0,0,.652.112,2.87,2.87,0,0,0,1.011-.326,1.762,1.762,0,0,1,1.678-.432,2.317,2.317,0,0,0-.38-.479.415.415,0,0,0-.288-.081c-.123.011-.239.091-.363.11-.193.03-.389.033-.61.049C129.535,227.151,129.436,227.4,129.126,227.425Z" transform="translate(-127.416 -226.645)" fill="#989898"/>
    </g>
    <g id="路径_179" data-name="路径 179" transform="translate(127.157 225.515)">
      <path id="路径_484" data-name="路径 484" d="M127.166,225.989a8.649,8.649,0,0,0-.009,1.068l.751.148.025-.042-.513-.335.038-.076h.287c-.049-.2.22-.4-.089-.569-.067-.036-.154-.17-.135-.2a.417.417,0,0,1,.23-.176c.193-.056.395-.082.593-.121a.721.721,0,0,0-.4-.176C127.408,225.469,127.217,225.569,127.166,225.989Z" transform="translate(-127.145 -225.502)" fill="#989898"/>
    </g>
    <g id="路径_180" data-name="路径 180" transform="translate(132.435 227.169)">
      <path id="路径_485" data-name="路径 485" d="M132.772,227.671l1.851-.473v-.046h-2.216Z" transform="translate(-132.407 -227.152)" fill="#989898"/>
    </g>
    <g id="路径_181" data-name="路径 181" transform="translate(134.703 228.295)">
      <path id="路径_486" data-name="路径 486" d="M135.975,228.647c-.661-.472-.965-.5-1.305-.051C135.142,228.653,135.528,229.036,135.975,228.647Z" transform="translate(-134.67 -228.275)" fill="#989898"/>
    </g>
    <g id="路径_182" data-name="路径 182" transform="translate(131.339 227.327)">
      <path id="路径_487" data-name="路径 487" d="M131.315,227.314a1.19,1.19,0,0,1,.772.986c0,.49.274.584.692.641C131.7,227.289,131.7,227.289,131.315,227.314Z" transform="translate(-131.315 -227.309)" fill="#989898"/>
    </g>
    <g id="路径_183" data-name="路径 183" transform="translate(126.659 225.305)">
      <path id="路径_488" data-name="路径 488" d="M126.648,226.377h0l.193.518.093-.007a2.251,2.251,0,0,0,.054-.364c0-.4-.021-.8-.033-1.206l-.061-.026-.238,1.095h0Z" transform="translate(-126.648 -225.292)" fill="#989898"/>
    </g>
    <g id="路径_184" data-name="路径 184" transform="translate(126.659 226.392)">
      <path id="路径_489" data-name="路径 489" d="M126.648,226.378l.193.517-.193-.518Z" transform="translate(-126.648 -226.377)" fill="#989898"/>
    </g>
    <g id="路径_185" data-name="路径 185" transform="translate(126.666 226.4)">
      <path id="路径_490" data-name="路径 490" d="M126.655,226.386" transform="translate(-126.655 -226.386)" fill="#989898"/>
    </g>
    <g id="路径_186" data-name="路径 186" transform="translate(134.465 226.385)">
      <path id="路径_491" data-name="路径 491" d="M134.433,226.37c.075.483.3.645.861.642A.876.876,0,0,0,134.433,226.37Z" transform="translate(-134.433 -226.37)" fill="#989898"/>
    </g>
    <g id="路径_187" data-name="路径 187" transform="translate(133.98 228.792)">
      <path id="路径_492" data-name="路径 492" d="M133.95,229.251c.429.222.535.177.841-.358C134.457,228.67,134.3,228.732,133.95,229.251Z" transform="translate(-133.95 -228.771)" fill="#989898"/>
    </g>
    <g id="路径_188" data-name="路径 188" transform="translate(131.05 228.927)">
      <path id="路径_493" data-name="路径 493" d="M131.768,228.906l-.74.063.26.707Z" transform="translate(-131.028 -228.906)" fill="#989898"/>
    </g>
    <g id="路径_189" data-name="路径 189" transform="translate(131.104 228.022)">
      <path id="路径_494" data-name="路径 494" d="M131.451,228l-.369.623h.7Z" transform="translate(-131.082 -228.003)" fill="#989898"/>
    </g>
    <g id="路径_190" data-name="路径 190" transform="translate(130.338 229.121)">
      <path id="路径_495" data-name="路径 495" d="M130.741,229.1l-.424.559.733.111Z" transform="translate(-130.317 -229.099)" fill="#989898"/>
    </g>
    <g id="路径_191" data-name="路径 191" transform="translate(128.138 225.184)">
      <path id="路径_496" data-name="路径 496" d="M129.1,225.546l-.976-.373C128.122,225.495,128.622,225.682,129.1,225.546Z" transform="translate(-128.123 -225.173)" fill="#989898"/>
    </g>
    <g id="路径_192" data-name="路径 192" transform="translate(134.658 228.992)">
      <path id="路径_497" data-name="路径 497" d="M135.215,228.97l-.589.607C135.01,229.727,135.2,229.543,135.215,228.97Z" transform="translate(-134.626 -228.97)" fill="#989898"/>
    </g>
    <g id="路径_193" data-name="路径 193" transform="translate(130.411 227.987)">
      <path id="路径_498" data-name="路径 498" d="M130.809,228.505a2.661,2.661,0,0,0,.341-.437l-.086-.1-.674.356C130.606,228.419,130.772,228.537,130.809,228.505Z" transform="translate(-130.39 -227.968)" fill="#989898"/>
    </g>
    <g id="路径_194" data-name="路径 194" transform="translate(130.835 226.247)">
      <path id="路径_499" data-name="路径 499" d="M130.813,226.359c.223.313.577.166.864.255l.032-.108-.859-.273Z" transform="translate(-130.813 -226.233)" fill="#989898"/>
    </g>
    <g id="路径_195" data-name="路径 195" transform="translate(130.184 228.641)">
      <path id="路径_500" data-name="路径 500" d="M130.164,229.286c.484-.375.49-.456.085-.666Z" transform="translate(-130.164 -228.62)" fill="#989898"/>
    </g>
    <g id="路径_196" data-name="路径 196" transform="translate(136.556 230.159)">
      <path id="路径_501" data-name="路径 501" d="M136.626,230.644l.108.032.311-.541-.525.071Z" transform="translate(-136.52 -230.135)" fill="#989898"/>
    </g>
    <g id="路径_197" data-name="路径 197" transform="translate(131.965 227.391)">
      <path id="路径_502" data-name="路径 502" d="M131.94,227.487c.231.123.313.467.634.456l.075-.107-.638-.462Z" transform="translate(-131.94 -227.374)" fill="#989898"/>
    </g>
    <g id="路径_198" data-name="路径 198" transform="translate(136.615 229.464)">
      <path id="路径_503" data-name="路径 503" d="M136.934,229.441l-.355.477h.5Z" transform="translate(-136.579 -229.441)" fill="#989898"/>
    </g>
    <g id="路径_199" data-name="路径 199" transform="translate(136.115 230.34)">
      <path id="路径_504" data-name="路径 504" d="M136.08,230.824l.426.044-.181-.553Z" transform="translate(-136.08 -230.315)" fill="#989898"/>
    </g>
  </g>
</svg>
