<svg xmlns="http://www.w3.org/2000/svg" width="19.967" height="20" viewBox="0 0 19.967 20">
  <g id="icon_starcraft2_k" transform="translate(-629.277 -187.059)">
    <g id="路径_154" data-name="路径 154" transform="translate(630.959 200.539)">
      <path id="路径_459" data-name="路径 459" d="M631.2,200.548a1.8,1.8,0,0,0-.237.188l2.688-.038q-.234-.088-.442-.157A2.192,2.192,0,0,0,631.2,200.548Z" transform="translate(-630.959 -200.301)" fill="#989898"/>
    </g>
    <g id="路径_155" data-name="路径 155" transform="translate(629.277 187.059)">
      <path id="路径_460" data-name="路径 460" d="M645.818,193.249l.694.539a.442.442,0,0,0,.6-.05l2.016-2.2a.442.442,0,0,0-.326-.74h-4.293v-.1a3.909,3.909,0,0,1,2.5-2.72c.108-.042-3.9-.919-3.9-.919l-2.389.919v3.276l-1.038,1.133a.506.506,0,0,1-.123.613,5.408,5.408,0,0,0-.745,2.634,7.185,7.185,0,0,0,.13,2.113l-.354-.4v-4.56l1.14-1.241a.442.442,0,0,0-.326-.74H638.6v-2.823l-2.389-.919s-4,.877-3.9.919a3.911,3.911,0,0,1,2.5,2.72v.139c-1.3.012-2.552.022-3.074.022a1.777,1.777,0,0,0-1.766,1.788v.049a.444.444,0,0,0,.032.185c.1.236.27.272.541.282a.443.443,0,0,0,.1.317c.144.169,2.6,3.057,4.163,4.869v1.057c-.718.015-1.492.03-1.78.03s-.71-.381-.865-.564a.441.441,0,0,0-.622-.056l-.026.024-2.107,2.077a.442.442,0,0,0,.309.756h0l5.089-.019V203.9a11.485,11.485,0,0,0,3.786,3.162V201.58a2.06,2.06,0,0,0,1.315-1.819,6.89,6.89,0,0,0,.476.543,4.468,4.468,0,0,0,.338.319v6.432a11.486,11.486,0,0,0,3.787-3.162v-1.832h.075a5.449,5.449,0,0,0,.59-.033c2.159-.232,2.606-1.218,2.651-1.33a.443.443,0,0,0-.251-.572.452.452,0,0,0-.187-.028,5.325,5.325,0,0,1-2.646-.483l-.142-.058c-.029-.011-.058-.025-.09-.041v-6.273Zm-9.706-5.746,1.672.808-1.111.442s-.018-.34-.707-.643a4.57,4.57,0,0,0-1.47-.332Zm-1.128,2.408.641-.358-.806.055a4.644,4.644,0,0,0-1.812-1.544,4.75,4.75,0,0,1,2.26.276c.8.442,1.131.826,1.131,1.158v1.329h-.033Zm-2.381,1.317h6.406a1.778,1.778,0,0,1,.221.02l.093.009a1.217,1.217,0,0,1-.159.188,3.933,3.933,0,0,0-.568.552,4.763,4.763,0,0,1-.689.692.3.3,0,0,1-.422.008l-.029-.027c-.3-.321-.435-.622-.911-.617-.578.006-1.156.005-1.734,0-.918,0-1.835-.012-2.754-.017a2.488,2.488,0,0,1-.326-.006c-.164-.023-.732.213-.734.174v-.032a.545.545,0,0,1,.132-.432,2.06,2.06,0,0,1,.85-.434,2.551,2.551,0,0,1,.621-.078Zm2.541,7.513c.223.255.416.478.571.652l-.572.011c0-.22,0-.442,0-.663Zm-5.195,2.5-.006-.006-.079-.089c.61-.577,1.214-1.159,1.836-1.723a.36.36,0,0,1,.343.008,2.308,2.308,0,0,0,.334.216,2.406,2.406,0,0,0,.632.233,3.542,3.542,0,0,0,.873.072c.309-.009.619-.011.928-.012h.331c.392,0,.783,0,1.174,0h.306l.042.2-.328.121-.02.008-.272.1.011.051c.086,0,.173,0,.26.006a4.727,4.727,0,0,0,1.032-.022.632.632,0,0,0,.366-.966,3.949,3.949,0,0,0-.516-.694c-.31-.356-.6-.7-.882-1.029-.4-.467-.774-.918-1.162-1.372l-.343-.4c-.341-.4-.694-.8-1.078-1.231a1.872,1.872,0,0,0-1.257-.758,3,3,0,0,1-.384-.133c-.051-.021-.1-.042-.155-.06l.02-.1v-.034a2.765,2.765,0,0,1,.331-.041c.894-.006,1.032-.022,1.925,0a.85.85,0,0,1,.552.259l.038.043q.36.414.7.807c.277.324.544.639.809.952.75.891,1.471,1.766,2.281,2.727l.167.2a3.018,3.018,0,0,1,.419.866c.04.1-.016.24-.034.42-.044-.027-.083-.054-.121-.08a4.122,4.122,0,0,1-.43-.356,3.185,3.185,0,0,0-.451-.349c0,.112-.007.187,0,.262a1.3,1.3,0,0,1-.782,1.426,1.6,1.6,0,0,1-.674.113c-.125,0-.25-.007-.376-.01-.392-.01-.783-.012-1.175-.012h-.7a1.567,1.567,0,0,0-.267.045l-.008.116.64.064.33.033.4.04v.089H629.95Zm5.19.415h1.176v.835l-1.176.545s0-.557,0-1.382Zm.046,2.093,1.46-.413a6.842,6.842,0,0,0,1.682,3.2,9.958,9.958,0,0,1-3.145-2.789Zm10.642-12.559q1.294,0,2.589-.01h.229l-.061.064-1.66,1.75a.9.9,0,0,0,.021-.382c-.059-.311-.333-.458-.638-.57a1.392,1.392,0,0,0-.411-.005l.228.357.01.015h-4.094V192.3c.541-.282,1.153.02,1.733-.158-.208-.167-.254-.2-1.209-.136a6.63,6.63,0,0,0-1.149.277l-.047-.1.836-.507.1-.064-.249-.344c.077-.01.148-.021.214-.034a2.469,2.469,0,0,1,.377-.045q.931-.008,1.864-.007Zm.488-3.126a3.928,3.928,0,0,0-1.71,1.544l-.909-.055.827.413-1.516.836h-.083v-1.3c0-.332.332-.716,1.132-1.158a4.746,4.746,0,0,1,2.256-.281Zm-3.1-.561,1.617.276a4.537,4.537,0,0,0-1.47.331c-.689.3-.707.643-.707.643l-1.111-.441ZM641,206.534a6.843,6.843,0,0,0,1.682-3.2l1.46.413a9.958,9.958,0,0,1-3.151,2.787Zm3.188-3.5-1.176-.683v-.509a5.837,5.837,0,0,0,1.175.21c-.006.608-.006.982-.006.982Zm2.7-1.961a.815.815,0,0,1-.586.1,1.971,1.971,0,0,0-.614-.025,4.418,4.418,0,0,1-.715.024c-.154-.007-.307-.021-.459-.042-.111-.016-.22-.037-.33-.059a5.692,5.692,0,0,1-.706-.2,3.727,3.727,0,0,1-.469-.2,4.989,4.989,0,0,1-1.694-1.541,4.162,4.162,0,0,1-.586-1.115,5.812,5.812,0,0,1-.032-3.185l.032-.145c.091-.409.12-.588,0-.761a1.121,1.121,0,0,0-.217-.217c-.081-.065-.18-.138-.3-.228-.015-.011-.015-.043-.032-.092h2.637l.007.049.01.063-.04.012a2.644,2.644,0,0,0-.57.267,2,2,0,0,1-.44.179c.054.173-.275.272-.226.43.248-.111.353-.153.547-.236l.291-.128c-.072.35-.318.8-.386,1.075a4.424,4.424,0,0,0,.661,3.337,2.237,2.237,0,0,0,.331.456,5.263,5.263,0,0,0,.542.5c.127.1.256.2.38.3l.083.067c.054.043.111.082.169.121a3.413,3.413,0,0,0,.33.189c.264.135.541.25.8.386.07.036.14.07.211.1l-.02.077a1.177,1.177,0,0,1-.281.021,4.963,4.963,0,0,1-.63-.148l-.083-.026c-.113-.038-.223-.08-.33-.127a2.776,2.776,0,0,1-.753-.486,2.66,2.66,0,0,1-.422-.5l-.015-.02c-.056-.088-.157-.143-.221-.226a6.155,6.155,0,0,1-.381-.536c-.066-.107-.08-.247-.151-.352-.035-.052-.071-.1-.106-.154-.24-.347-.49-.688-.726-1.038a1.821,1.821,0,0,1-.146-.364,2.27,2.27,0,0,0,.3,1.862A4.339,4.339,0,0,0,643,200.188a3.538,3.538,0,0,0,1.175.492c.107.024.217.043.33.058q.218.031.44.04h.439c.56-.011,1.122-.067,1.682-.094a.657.657,0,0,1,.231.025.579.579,0,0,1,.055.019,4.614,4.614,0,0,1-.464.343Zm-2.7-1.745a3.517,3.517,0,0,1-1.173-1.442v-3.651a7.467,7.467,0,0,1,.3-.787.428.428,0,0,0,.041-.2h.817c0,1.314.007,3.9.01,6.08Z" transform="translate(-629.277 -187.059)" fill="#989898"/>
    </g>
  </g>
</svg>
