<svg xmlns="http://www.w3.org/2000/svg" width="14.446" height="20" viewBox="0 0 14.446 20">
  <g id="icon_wartank_k" transform="translate(-938.866 -186.891)">
    <g id="路径_167" data-name="路径 167" transform="translate(938.866 186.891)">
      <path id="路径_472" data-name="路径 472" d="M953.306,198.005V190.8a.233.233,0,0,0-.067-.182q-1.822-1.825-3.638-3.657a.2.2,0,0,0-.161-.066h-1.282l-5.4.017a.2.2,0,0,0-.155.056q-1.834,1.808-3.669,3.611a.2.2,0,0,0-.066.161c0,.519.006,1.04.008,1.559l.026,7.055a.234.234,0,0,0,.065.183q3.522,3.627,7.04,7.258a.845.845,0,0,1,.068.1c.045-.042.07-.064.093-.088q3.536-3.555,7.073-7.11a.232.232,0,0,0,.071-.181C953.306,199.01,953.306,198.508,953.306,198.005Zm-.724,1.127a.218.218,0,0,1-.07.17q-3.191,3.128-6.377,6.255l-.069.064c-.031-.028-.056-.05-.08-.074l-6.374-6.213a.236.236,0,0,1-.08-.186v-8.071a.235.235,0,0,1,.079-.186q1.687-1.624,3.372-3.255a.259.259,0,0,1,.2-.079H949.1a.239.239,0,0,1,.187.079q1.609,1.663,3.222,3.319a.239.239,0,0,1,.074.18q0,4,0,8Z" transform="translate(-938.866 -186.891)" fill="#989898"/>
    </g>
    <g id="路径_168" data-name="路径 168" transform="translate(940.481 188.327)">
      <path id="路径_473" data-name="路径 473" d="M947.523,191.263a.982.982,0,0,1,.006-.128h4.2c-.036-.039-.058-.065-.081-.088q-1.279-1.316-2.557-2.636a.245.245,0,0,0-.2-.083h-5.661a.17.17,0,0,0-.135.054q-1.285,1.348-2.572,2.692a.526.526,0,0,0-.045.064h4.12v.157q-.011,5.9-.022,11.794a.231.231,0,0,0,.079.187q.669.636,1.334,1.277l.076.07.08-.075,1.314-1.312a.23.23,0,0,0,.073-.18q-.011-5.2-.017-10.4C947.527,192.192,947.524,191.727,947.523,191.263Z" transform="translate(-940.481 -188.327)" fill="#989898"/>
    </g>
    <g id="路径_169" data-name="路径 169" transform="translate(940.366 192.364)">
      <path id="路径_474" data-name="路径 474" d="M943.346,197.964a.3.3,0,0,1-.1-.24v-5.365h-2.88v.146q.02,3.186.037,6.373a.24.24,0,0,0,.086.194q1.041.979,2.078,1.963l.083.074,1.859-2c-.038-.031-.07-.052-.1-.078C944.057,198.673,943.7,198.316,943.346,197.964Z" transform="translate(-940.366 -192.359)" fill="#989898"/>
    </g>
    <g id="路径_170" data-name="路径 170" transform="translate(947.666 192.359)">
      <path id="路径_475" data-name="路径 475" d="M951.732,192.372c-.1-.025-2.724-.022-2.807,0v.13q.018,2.577.04,5.155a.27.27,0,0,1-.082.208c-.384.4-.764.81-1.146,1.215l-.078.085,1.95,1.93.053-.047,2.033-2.011a.2.2,0,0,0,.057-.165q-.012-3.2-.02-6.4Z" transform="translate(-947.659 -192.354)" fill="#989898"/>
    </g>
  </g>
</svg>
