<svg xmlns="http://www.w3.org/2000/svg" width="20" height="12.486" viewBox="0 0 20 12.486">
  <g id="icon_pubg_k" transform="translate(-377.925 -223.993)">
    <path id="路径_524" data-name="路径 524" d="M387.5,233.32a.626.626,0,0,1-.6.651H384.79a.625.625,0,0,1-.6-.54,1.164,1.164,0,0,1-.01-.155V226.59c0-.106-.017-.1.1-.1h1.056c.082,0,.082,0,.082.081v6.074c0,.094,0,.094.1.094h.669c.082,0,.082,0,.082-.084V226.59c0-.1-.015-.1.1-.1h1.054c.064,0,.08.019.08.081v3.418C387.495,231.1,387.49,232.21,387.5,233.32Zm-3.749-2.9a.648.648,0,0,1-.65.644h-.946c-.059,0-.073.018-.073.074v2.755c0,.085,0,.085-.084.085h-1.062c-.085,0-.086,0-.086-.084v-6.76a.64.64,0,0,1,.5-.627.614.614,0,0,1,.136-.01h1.617a.638.638,0,0,1,.628.5.777.777,0,0,1,.01.136v3.283Zm-1.233-.665V227.8c0-.052-.016-.069-.068-.067h-.287c-.064,0-.081.018-.08.081v1.942c0,.062.019.078.078.075h.287c.054,0,.07-.02.07-.076Zm14.561-1.936v4.868c0,.058.016.062.061.062h.78v1.233c-.256,0-.512,0-.768,0-.057,0-.075.016-.074.074v.956a1.444,1.444,0,0,1-1.413,1.471H380.238a1.732,1.732,0,0,1-.279-.025,1.467,1.467,0,0,1-1.192-1.4v-.981a.135.135,0,0,0,0-.049c-.008-.017-.026-.037-.043-.037h-.8v-1.249h.752c.092,0,.092,0,.092-.093v-4.832a.135.135,0,0,0,0-.049c-.008-.016-.027-.04-.044-.04h-.8V226.49h.784c.052,0,.061-.024.061-.069,0-.337-.006-.675,0-1.012a1.409,1.409,0,0,1,.5-1.057,1.438,1.438,0,0,1,.8-.357,1.458,1.458,0,0,1,.187,0H395.6a1.486,1.486,0,0,1,1.435,1.1,1.432,1.432,0,0,1,.044.313c.006.339,0,.679,0,1.019,0,.057.016.076.074.076h.769v1.239h-.749c-.1-.018-.1-.017-.1.074Zm-1.232,7.126v-9.428a.831.831,0,0,0-.008-.112.2.2,0,0,0-.194-.177H380.261c-.19,0-.263.073-.264.265V235a.218.218,0,0,0,.192.241.191.191,0,0,0,.048,0h15.376a.215.215,0,0,0,.232-.2v0a.18.18,0,0,0,0-.033v-.066Zm-5.833-5.644c0,.093,0,.093.1.093h1.056c.063,0,.081-.016.081-.08v-2.18a.877.877,0,0,0-.01-.136.639.639,0,0,0-.629-.5c-.539.008-1.079,0-1.618,0a.614.614,0,0,0-.136.01.637.637,0,0,0-.5.628c.008.437,0,.875,0,1.312v.894c0,.054-.016.074-.072.072H388c-.053,0-.072.01-.072.068v1.1c0,.054.018.068.068.066h.269c.09,0,.086,0,.086.089v1.337h0v1.3a.636.636,0,0,0,.619.61h1.655a.64.64,0,0,0,.623-.612v-2.643c0-.05-.016-.063-.065-.063h-1.081c-.087,0-.087,0-.087.09v1.924c0,.057-.016.078-.074.076h-.281c-.064,0-.081-.02-.08-.082v-1.936c0-.085,0-.085.087-.085h1.087c.061,0,.077-.018.076-.078v-1.069c0-.093,0-.093-.1-.093h-1.087c-.039,0-.067,0-.067-.055v-1.574c0-.041.015-.055.055-.054h.3c.065,0,.08.02.08.082V229.3Zm4.98,2.278v-1.586a.622.622,0,0,0-.586-.581h-1c-.043,0-.059.012-.058.056v1.12c0,.043.013.059.057.058h.294c.048,0,.065.016.065.065v1.976c0,.05-.017.065-.065.065h-.719c-.048,0-.064-.014-.064-.064v-4.894c0-.052.018-.063.065-.062h.712c.055,0,.072.015.071.071v.694c0,.054.01.076.071.075h1.094c.057,0,.069-.019.069-.071v-1.375a.612.612,0,0,0-.6-.625h-.035c-.681.006-1.362,0-2.042,0a.618.618,0,0,0-.641.594v.006a.41.41,0,0,0,0,.049v6.178a.65.65,0,0,0,.64.659h.019c.671-.009,1.341,0,2.011,0a1.175,1.175,0,0,0,.118-.006.648.648,0,0,0,.533-.648c-.02-.593-.012-1.175-.012-1.755Z" fill="#989898"/>
  </g>
</svg>
