<svg xmlns="http://www.w3.org/2000/svg" width="9.805" height="20.005" viewBox="0 0 9.805 20.005">
  <g id="icon_rainbowsix_k" transform="translate(-817.306 -186.884)">
    <path id="路径_438" data-name="路径 438" d="M827.077,192.667a17.679,17.679,0,0,0-.019-2.457,3.4,3.4,0,0,0-2.4-2.967,8.483,8.483,0,0,0-2.287-.359,9.371,9.371,0,0,0-2.495.378,3.342,3.342,0,0,0-2.513,3.326c-.019,2.514,0,5.027-.019,7.541,0,1.814-.038,3.647-.038,5.461a2.642,2.642,0,0,0,.113.775,3.1,3.1,0,0,0,1.8,1.909,6.755,6.755,0,0,0,3.761.548,5.9,5.9,0,0,0,2.967-1.172,2.535,2.535,0,0,0,1.077-2c.038-1.247.019-2.495.038-3.742,0-1.455.019-2.91.019-4.384a1.285,1.285,0,0,0-.151-.586,2.409,2.409,0,0,0-1.7-1.285,7.5,7.5,0,0,0-2.343-.132,1.612,1.612,0,0,0-1.3.472c-.019-.019-.038-.038-.038-.057V190.8a.235.235,0,0,1,.094-.189.915.915,0,0,1,1.163-.075.36.36,0,0,1,.132.265c.019.51,0,1.039,0,1.55v.321Zm-5.424,4.725a.327.327,0,0,1,.227.151.329.329,0,0,0,.359.246,3.177,3.177,0,0,0,.737-.132c.321-.094.643-.246.964-.359a1.626,1.626,0,0,1,.435-.094.546.546,0,0,1,.65.42.561.561,0,0,1,.011.147c.019.378,0,.756,0,1.172-.529.094-1.058.17-1.587.246-.34.057-.4.094-.416.435-.019.359-.019.737-.019,1.1,0,.208-.113.283-.3.321a2.112,2.112,0,0,0-.472.094.535.535,0,0,0-.416.567c0,.869,0,1.758.019,2.627a.339.339,0,0,1-.227.359c-.208.057-.435.094-.643.132a.562.562,0,0,1-.567-.265c-.019-.038,0-.094,0-.151a3.679,3.679,0,0,0,.076-.454c0-1.833.019-3.685.019-5.518,0-.151.076-.321-.094-.454-.019-.019,0-.057,0-.076.019-.038.019-.076.038-.113.094-.189.17-.4.435-.4A5.364,5.364,0,0,0,821.653,197.392Zm.227,3.288v-.491a.365.365,0,0,1,.308-.414.357.357,0,0,1,.092,0q.276.015.548.057a.261.261,0,0,1,.076-.057c-.132-.094-.265-.189-.435-.3.3-.076.472.038.472.283v.907c0,.17-.076.246-.246.246h-.57c-.17-.007-.264-.078-.246-.229Z" fill="#989898"/>
  </g>
</svg>
