<svg xmlns="http://www.w3.org/2000/svg" width="18.384" height="20" viewBox="0 0 18.384 20">
  <g id="icon_coduty_k" transform="translate(-216.185 -220.716)">
    <g id="路径_203" data-name="路径 203" transform="translate(221.363 220.725)">
      <path id="路径_508" data-name="路径 508" d="M221.1,221.3c0,5.586.018,11.173-.021,16.761a1.259,1.259,0,0,0,.888,1.437c.875.334,1.712.8,2.6,1.217V220.725H221.1Z" transform="translate(-221.057 -220.725)" fill="#989898"/>
    </g>
    <g id="路径_204" data-name="路径 204" transform="translate(225.897 220.729)">
      <path id="路径_509" data-name="路径 509" d="M228.768,220.729h-3.444v19.987c1.064-.51,2.076-1,3.1-1.47a.56.56,0,0,0,.379-.6q-.015-8.726-.009-17.451C228.791,221.036,228.777,220.888,228.768,220.729Z" transform="translate(-225.324 -220.729)" fill="#989898"/>
    </g>
    <g id="路径_205" data-name="路径 205" transform="translate(216.185 220.716)">
      <path id="路径_510" data-name="路径 510" d="M216.2,223.363a2.621,2.621,0,0,0,.3,1.138,3.1,3.1,0,0,1,.3,1.5c-.023,1.472,0,2.946-.014,4.415a1.616,1.616,0,0,1-.132.663c-.35.739-.453.568-.453,1.4,0,.07-.008,3.19-.008,3.267a1.7,1.7,0,0,0,.93,1.541c1.214.605,2.115.97,3.2,1.476V220.716H216.2C216.2,221.509,216.2,222.617,216.2,223.363Z" transform="translate(-216.185 -220.716)" fill="#989898"/>
    </g>
    <g id="路径_206" data-name="路径 206" transform="translate(230.443 220.716)">
      <path id="路径_511" data-name="路径 511" d="M233.679,223.363a2.607,2.607,0,0,1-.3,1.138,3.082,3.082,0,0,0-.3,1.5c.022,1.472,0,2.946.013,4.415a1.634,1.634,0,0,0,.133.663c.351.739.454.568.454,1.4,0,.07.007,3.19.007,3.267a1.707,1.707,0,0,1-.931,1.541c-1.214.605-2.115.97-3.2,1.476V220.716h4.108C233.672,221.509,233.679,222.617,233.679,223.363Z" transform="translate(-229.564 -220.716)" fill="#989898"/>
    </g>
  </g>
</svg>
